# Blender 3.4.1
# www.blender.org
mtllib bishop.mtl
o cube
v 0.125000 0.125000 0.125000
v 0.125000 0.125000 -0.125000
v 0.125000 -0.250000 0.125000
v 0.125000 -0.250000 -0.125000
v -0.125000 0.125000 -0.125000
v -0.125000 0.125000 0.125000
v -0.125000 -0.250000 -0.125000
v -0.125000 -0.250000 0.125000
vn -0.0000 -0.0000 -1.0000
vn 1.0000 -0.0000 -0.0000
vn -0.0000 -0.0000 1.0000
vn -1.0000 -0.0000 -0.0000
vn -0.0000 1.0000 -0.0000
vn -0.0000 -1.0000 -0.0000
vt 0.187500 1.000000
vt 0.312500 1.000000
vt 0.312500 0.875000
vt 0.187500 1.000000
vt 0.312500 1.000000
vt 0.187500 0.812500
vt 0.312500 0.812500
vt 0.312500 1.000000
vt 0.187500 0.812500
vt 0.312500 0.812500
vt 0.312500 0.875000
vt 0.312500 1.000000
vt 0.187500 1.000000
vt 0.187500 1.000000
vt 0.312500 1.000000
vt 0.187500 0.875000
vt 0.312500 0.812500
vt 0.187500 0.812500
vt 0.187500 0.875000
vt 0.187500 0.812500
vt 0.312500 0.812500
vt 0.187500 1.000000
s 0
usemtl 0
f 4/9/1 7/17/1 5/12/1 2/4/1
f 3/6/2 4/10/2 2/5/2 1/1/2
f 8/20/3 3/7/3 1/2/3 6/14/3
f 7/18/4 8/21/4 6/15/4 5/13/4
f 6/16/5 1/3/5 2/5/5 5/13/5
f 7/19/6 4/11/6 3/8/6 8/22/6
o cube.001
v 0.187500 0.500000 0.187500
v 0.187500 0.500000 -0.187500
v 0.187500 0.125000 0.187500
v 0.187500 0.125000 -0.187500
v -0.187500 0.500000 -0.187500
v -0.187500 0.500000 0.187500
v -0.187500 0.125000 -0.187500
v -0.187500 0.125000 0.187500
vn -0.0000 -0.0000 -1.0000
vn 1.0000 -0.0000 -0.0000
vn -0.0000 -0.0000 1.0000
vn -1.0000 -0.0000 -0.0000
vn -0.0000 1.0000 -0.0000
vn -0.0000 -1.0000 -0.0000
vt 0.500000 0.437500
vt 0.500000 1.000000
vt 0.500000 0.625000
vt 0.312500 0.625000
vt 0.312500 0.437500
vt 0.500000 0.812500
vt 0.500000 0.250000
vt 0.500000 0.812500
vt 0.343750 0.843750
vt 0.312500 0.437500
vt 0.312500 0.250000
vt 0.343750 0.812500
vt 0.500000 0.625000
vt 0.312500 0.437500
vt 0.312500 0.812500
vt 0.312500 1.000000
vt 0.500000 0.437500
vt 0.312500 0.625000
vt 0.500000 0.437500
vt 0.312500 0.250000
vt 0.312500 0.812500
vt 0.312500 0.812500
vt 0.500000 0.250000
vt 0.312500 0.843750
s 0
usemtl 0
f 12/32/7 15/41/7 13/35/7 10/26/7
f 11/29/8 12/33/8 10/27/8 9/23/8
f 16/44/9 11/30/9 9/24/9 14/38/9
f 15/42/10 16/45/10 14/39/10 13/36/10
f 14/40/11 9/25/11 10/28/11 13/37/11
f 15/43/12 12/34/12 11/31/12 16/46/12
o cube.002
v 0.156250 -0.125000 0.156250
v 0.156250 -0.125000 -0.156250
v 0.156250 -0.187500 0.156250
v 0.156250 -0.187500 -0.156250
v -0.156250 -0.125000 -0.156250
v -0.156250 -0.125000 0.156250
v -0.156250 -0.187500 -0.156250
v -0.156250 -0.187500 0.156250
vn -0.0000 -0.0000 -1.0000
vn 1.0000 -0.0000 -0.0000
vn -0.0000 -0.0000 1.0000
vn -1.0000 -0.0000 -0.0000
vn -0.0000 1.0000 -0.0000
vn -0.0000 -1.0000 -0.0000
vt 0.500000 1.000000
vt 0.656250 1.000000
vt 0.656250 0.812500
vt 0.500000 1.000000
vt 0.656250 1.000000
vt 0.656250 0.968750
vt 0.500000 0.968750
vt 0.656250 0.968750
vt 0.500000 0.968750
vt 0.656250 0.968750
vt 0.656250 0.812500
vt 0.656250 1.000000
vt 0.500000 1.000000
vt 0.500000 0.968750
vt 0.500000 1.000000
vt 0.656250 1.000000
vt 0.500000 0.812500
vt 0.656250 0.968750
vt 0.500000 0.968750
vt 0.500000 0.812500
vt 0.656250 0.968750
vt 0.500000 0.968750
s 0
usemtl 0
f 20/55/13 23/64/13 21/58/13 18/50/13
f 19/53/14 20/56/14 18/51/14 17/47/14
f 24/68/15 19/54/15 17/48/15 22/61/15
f 23/65/16 24/67/16 22/62/16 21/59/16
f 22/63/17 17/49/17 18/52/17 21/60/17
f 23/66/18 20/57/18 19/54/18 24/68/18
o cube.003
v 0.187500 -0.250000 0.187500
v 0.187500 -0.250000 -0.187500
v 0.187500 -0.437500 0.187500
v 0.187500 -0.437500 -0.187500
v -0.187500 -0.250000 -0.187500
v -0.187500 -0.250000 0.187500
v -0.187500 -0.437500 -0.187500
v -0.187500 -0.437500 0.187500
vn -0.0000 -0.0000 -1.0000
vn 1.0000 -0.0000 -0.0000
vn -0.0000 -0.0000 1.0000
vn -1.0000 -0.0000 -0.0000
vn -0.0000 1.0000 -0.0000
vn -0.0000 -1.0000 -0.0000
vt 0.000000 1.000000
vt 0.187500 1.000000
vt 0.187500 0.718750
vt 0.000000 1.000000
vt 0.187500 1.000000
vt 0.187500 0.906250
vt 0.000000 0.906250
vt 0.187500 0.906250
vt 0.000000 0.906250
vt 0.187500 0.906250
vt 0.187500 0.718750
vt 0.187500 1.000000
vt 0.000000 1.000000
vt 0.000000 0.906250
vt 0.000000 1.000000
vt 0.187500 1.000000
vt 0.000000 0.718750
vt 0.187500 0.906250
vt 0.000000 0.906250
vt 0.000000 0.718750
vt 0.187500 0.906250
vt 0.000000 0.906250
s 0
usemtl 0
f 28/77/19 31/86/19 29/80/19 26/72/19
f 27/75/20 28/78/20 26/73/20 25/69/20
f 32/90/21 27/76/21 25/70/21 30/83/21
f 31/87/22 32/89/22 30/84/22 29/81/22
f 30/85/23 25/71/23 26/74/23 29/82/23
f 31/88/24 28/79/24 27/76/24 32/90/24
o cube.004
v 0.250000 -0.437500 0.250000
v 0.250000 -0.437500 -0.250000
v 0.250000 -0.500000 0.250000
v 0.250000 -0.500000 -0.250000
v -0.250000 -0.437500 -0.250000
v -0.250000 -0.437500 0.250000
v -0.250000 -0.500000 -0.250000
v -0.250000 -0.500000 0.250000
vn -0.0000 -0.0000 -1.0000
vn 1.0000 -0.0000 -0.0000
vn -0.0000 -0.0000 1.0000
vn -1.0000 -0.0000 -0.0000
vn -0.0000 1.0000 -0.0000
vn -0.0000 -1.0000 -0.0000
vt 0.000000 0.031250
vt 0.250000 0.031250
vt 0.000000 0.031250
vt 0.250000 0.031250
vt 0.250000 0.281250
vt 0.000000 0.000000
vt 0.250000 0.000000
vt 0.000000 0.062500
vt 0.000000 0.000000
vt 0.250000 0.000000
vt 0.000000 0.031250
vt 0.250000 0.031250
vt 0.000000 0.031250
vt 0.000000 0.281250
vt 0.250000 0.031250
vt 0.000000 0.031250
vt 0.250000 0.000000
vt 0.000000 0.000000
vt 0.031250 0.031250
vt 0.000000 0.000000
vt 0.250000 0.000000
vt 0.031250 0.062500
s 0
usemtl 0
f 36/99/25 39/107/25 37/102/25 34/93/25
f 35/96/26 36/100/26 34/94/26 33/91/26
f 40/110/27 35/97/27 33/92/27 38/106/27
f 39/108/28 40/111/28 38/105/28 37/103/28
f 38/106/29 33/92/29 34/95/29 37/104/29
f 39/109/30 36/101/30 35/98/30 40/112/30
o cube.005
v 0.062500 0.625000 0.062500
v 0.062500 0.625000 -0.062500
v 0.062500 0.500000 0.062500
v 0.062500 0.500000 -0.062500
v -0.062500 0.625000 -0.062500
v -0.062500 0.625000 0.062500
v -0.062500 0.500000 -0.062500
v -0.062500 0.500000 0.062500
vn -0.0000 -0.0000 -1.0000
vn 1.0000 -0.0000 -0.0000
vn -0.0000 -0.0000 1.0000
vn -1.0000 -0.0000 -0.0000
vn -0.0000 1.0000 -0.0000
vn -0.0000 -1.0000 -0.0000
vt 0.000000 0.718750
vt 0.062500 0.718750
vt 0.062500 0.687500
vt 0.000000 0.718750
vt 0.062500 0.718750
vt 0.000000 0.656250
vt 0.062500 0.656250
vt 0.062500 0.718750
vt 0.000000 0.656250
vt 0.062500 0.656250
vt 0.062500 0.718750
vt 0.000000 0.718750
vt 0.000000 0.718750
vt 0.062500 0.718750
vt 0.000000 0.687500
vt 0.062500 0.656250
vt 0.000000 0.656250
vt 0.000000 0.656250
vt 0.062500 0.656250
vt 0.000000 0.718750
s 0
usemtl 0
f 44/121/31 47/128/31 45/123/31 42/116/31
f 43/118/32 44/122/32 42/117/32 41/113/32
f 48/130/33 43/119/33 41/114/33 46/125/33
f 47/129/34 48/131/34 46/126/34 45/124/34
f 46/127/35 41/115/35 42/117/35 45/124/35
f 47/129/36 44/122/36 43/120/36 48/132/36
