o cube
v 0.5 0.5 0.5
v 0.5 0.5 -0.5
v 0.5 -0.5 0.5
v 0.5 -0.5 -0.5
v -0.5 0.5 -0.5
v -0.5 0.5 0.5
v -0.5 -0.5 -0.5
v -0.5 -0.5 0.5
vt 0 1
vt 1 1
vt 1 0
vt 0 0
vt 0 1
vt 1 1
vt 1 0
vt 0 0
vn 0 1 0
vn 0 -1 0
usemtl 0
f 6/4/1 1/3/1 2/2/1 5/1/1
usemtl 1
f 7/8/2 4/7/2 3/6/2 8/5/2
o cube
v 0.5 0.5 0.4375
v 0.5 0.5 -0.4375
v 0.5 -0.5 0.4375
v 0.5 -0.5 -0.4375
v -0.5 0.5 -0.4375
v -0.5 0.5 0.4375
v -0.5 -0.5 -0.4375
v -0.5 -0.5 0.4375
vt 0 1
vt 1 1
vt 1 0
vt 0 0
vt 0 1
vt 1 1
vt 1 0
vt 0 0
vn 0 0 -1
vn 0 0 1
usemtl 2
f 12/12/3 15/11/3 13/10/3 10/9/3
f 16/16/4 11/15/4 9/14/4 14/13/4
o cube
v 0.4375 0.5 0.5
v 0.4375 0.5 -0.5
v 0.4375 -0.5 0.5
v 0.4375 -0.5 -0.5
v -0.4375 0.5 -0.5
v -0.4375 0.5 0.5
v -0.4375 -0.5 -0.5
v -0.4375 -0.5 0.5
vt 0 1
vt 1 1
vt 1 0
vt 0 0
vt 0 1
vt 1 1
vt 1 0
vt 0 0
vn 1 0 0
vn -1 0 0
usemtl 2
f 19/20/5 20/19/5 18/18/5 17/17/5
f 23/24/6 24/23/6 22/22/6 21/21/6