# Blender 3.4.1
# www.blender.org
mtllib fence.mtl
o Center_post
v 0.125000 0.500000 0.125000
v 0.125000 0.500000 -0.125000
v 0.125000 -0.500000 0.125000
v 0.125000 -0.500000 -0.125000
v -0.125000 0.500000 -0.125000
v -0.125000 0.500000 0.125000
v -0.125000 -0.500000 -0.125000
v -0.125000 -0.500000 0.125000
vn -0.0000 -0.0000 -1.0000
vn 1.0000 -0.0000 -0.0000
vn -0.0000 -0.0000 1.0000
vn -1.0000 -0.0000 -0.0000
vn -0.0000 1.0000 -0.0000
vn -0.0000 -1.0000 -0.0000
vt 0.375000 1.000000
vt 0.625000 1.000000
vt 0.625000 0.375000
vt 0.375000 1.000000
vt 0.625000 1.000000
vt 0.625000 0.625000
vt 0.375000 0.000000
vt 0.625000 0.000000
vt 0.625000 0.625000
vt 0.375000 0.000000
vt 0.625000 0.000000
vt 0.625000 0.375000
vt 0.625000 1.000000
vt 0.375000 1.000000
vt 0.375000 0.625000
vt 0.375000 1.000000
vt 0.625000 1.000000
vt 0.375000 0.375000
vt 0.625000 0.000000
vt 0.375000 0.000000
vt 0.375000 0.375000
vt 0.375000 0.000000
vt 0.625000 0.000000
vt 0.375000 0.625000
s 0
usemtl 0
f 4/10/1 7/19/1 5/13/1 2/4/1
f 3/7/2 4/11/2 2/5/2 1/1/2
f 8/22/3 3/8/3 1/2/3 6/16/3
f 7/20/4 8/23/4 6/17/4 5/14/4
f 6/18/5 1/3/5 2/6/5 5/15/5
f 7/21/6 4/12/6 3/9/6 8/24/6
o lower_bar
v 0.062500 0.062500 0.062500
v 0.062500 0.062500 -0.500000
v 0.062500 -0.125000 0.062500
v 0.062500 -0.125000 -0.500000
v -0.062500 0.062500 -0.500000
v -0.062500 0.062500 0.062500
v -0.062500 -0.125000 -0.500000
v -0.062500 -0.125000 0.062500
vn -0.0000 -0.0000 -1.0000
vn 1.0000 -0.0000 -0.0000
vn -1.0000 -0.0000 -0.0000
vn -0.0000 1.0000 -0.0000
vn -0.0000 -1.0000 -0.0000
vt 0.000000 0.562500
vt 0.562500 0.437500
vt 0.437500 0.562500
vt 0.562500 0.562500
vt 0.562500 1.000000
vt 0.000000 0.375000
vt 0.562500 1.000000
vt 0.437500 0.375000
vt 0.562500 0.375000
vt 0.562500 0.437500
vt 0.562500 0.562500
vt 0.000000 0.562500
vt 0.437500 1.000000
vt 0.562500 0.562500
vt 0.437500 0.437500
vt 0.562500 0.375000
vt 0.000000 0.375000
vt 0.437500 0.437500
vt 0.562500 0.375000
vt 0.437500 1.000000
s 0
usemtl 0
f 12/32/7 15/40/7 13/35/7 10/27/7
f 11/30/8 12/33/8 10/28/8 9/25/8
f 15/41/9 16/43/9 14/38/9 13/36/9
f 14/39/10 9/26/10 10/29/10 13/37/10
f 15/42/11 12/34/11 11/31/11 16/44/11
o top_bar
v 0.062500 0.437500 0.062500
v 0.062500 0.437500 -0.500000
v 0.062500 0.250000 0.062500
v 0.062500 0.250000 -0.500000
v -0.062500 0.437500 -0.500000
v -0.062500 0.437500 0.062500
v -0.062500 0.250000 -0.500000
v -0.062500 0.250000 0.062500
vn -0.0000 -0.0000 -1.0000
vn 1.0000 -0.0000 -0.0000
vn -1.0000 -0.0000 -0.0000
vn -0.0000 1.0000 -0.0000
vn -0.0000 -1.0000 -0.0000
vt 0.000000 0.937500
vt 0.562500 0.437500
vt 0.437500 0.937500
vt 0.562500 0.937500
vt 0.562500 1.000000
vt 0.000000 0.750000
vt 0.562500 1.000000
vt 0.437500 0.750000
vt 0.562500 0.750000
vt 0.562500 0.437500
vt 0.562500 0.937500
vt 0.000000 0.937500
vt 0.437500 1.000000
vt 0.562500 0.937500
vt 0.437500 0.437500
vt 0.562500 0.750000
vt 0.000000 0.750000
vt 0.437500 0.437500
vt 0.562500 0.750000
vt 0.437500 1.000000
s 0
usemtl 0
f 20/52/12 23/60/12 21/55/12 18/47/12
f 19/50/13 20/53/13 18/48/13 17/45/13
f 23/61/14 24/63/14 22/58/14 21/56/14
f 22/59/15 17/46/15 18/49/15 21/57/15
f 23/62/16 20/54/16 19/51/16 24/64/16
