# Blender 3.4.1
# www.blender.org
mtllib fence_gate.mtl
o Inner_vertical_post_of_left-hand_gate_door
v 0.000000 0.437500 0.062500
v 0.000000 0.437500 -0.062500
v 0.000000 -0.125000 0.062500
v 0.000000 -0.125000 -0.062500
v -0.125000 0.437500 -0.062500
v -0.125000 0.437500 0.062500
v -0.125000 -0.125000 -0.062500
v -0.125000 -0.125000 0.062500
vn -0.0000 -0.0000 -1.0000
vn 1.0000 -0.0000 -0.0000
vn -0.0000 -0.0000 1.0000
vn -1.0000 -0.0000 -0.0000
vn -0.0000 1.0000 -0.0000
vn -0.0000 -1.0000 -0.0000
vt 0.437500 0.937500
vt 0.500000 0.937500
vt 0.500000 0.437500
vt 0.375000 0.937500
vt 0.562500 0.937500
vt 0.500000 0.562500
vt 0.437500 0.375000
vt 0.500000 0.375000
vt 0.500000 0.562500
vt 0.375000 0.375000
vt 0.562500 0.375000
vt 0.500000 0.437500
vt 0.500000 0.937500
vt 0.437500 0.937500
vt 0.375000 0.562500
vt 0.375000 0.937500
vt 0.562500 0.937500
vt 0.375000 0.437500
vt 0.500000 0.375000
vt 0.437500 0.375000
vt 0.375000 0.437500
vt 0.375000 0.375000
vt 0.562500 0.375000
vt 0.375000 0.562500
s 0
usemtl 0
f 4/10/1 7/19/1 5/13/1 2/4/1
f 3/7/2 4/11/2 2/5/2 1/1/2
f 8/22/3 3/8/3 1/2/3 6/16/3
f 7/20/4 8/23/4 6/17/4 5/14/4
f 6/18/5 1/3/5 2/6/5 5/15/5
f 7/21/6 4/12/6 3/9/6 8/24/6
o Inner_vertical_post_of_right-hand_gate_door
v 0.125000 0.437500 0.062500
v 0.125000 0.437500 -0.062500
v 0.125000 -0.125000 0.062500
v 0.125000 -0.125000 -0.062500
v 0.000000 0.437500 -0.062500
v 0.000000 0.437500 0.062500
v 0.000000 -0.125000 -0.062500
v 0.000000 -0.125000 0.062500
vn -0.0000 -0.0000 -1.0000
vn 1.0000 -0.0000 -0.0000
vn -0.0000 -0.0000 1.0000
vn -1.0000 -0.0000 -0.0000
vn -0.0000 1.0000 -0.0000
vn -0.0000 -1.0000 -0.0000
vt 0.437500 0.937500
vt 0.625000 0.937500
vt 0.625000 0.437500
vt 0.500000 0.937500
vt 0.562500 0.937500
vt 0.625000 0.562500
vt 0.437500 0.375000
vt 0.625000 0.375000
vt 0.625000 0.562500
vt 0.500000 0.375000
vt 0.562500 0.375000
vt 0.625000 0.437500
vt 0.625000 0.937500
vt 0.437500 0.937500
vt 0.500000 0.562500
vt 0.500000 0.937500
vt 0.562500 0.937500
vt 0.500000 0.437500
vt 0.625000 0.375000
vt 0.437500 0.375000
vt 0.500000 0.437500
vt 0.500000 0.375000
vt 0.562500 0.375000
vt 0.500000 0.562500
s 0
usemtl 0
f 12/34/7 15/43/7 13/37/7 10/28/7
f 11/31/8 12/35/8 10/29/8 9/25/8
f 16/46/9 11/32/9 9/26/9 14/40/9
f 15/44/10 16/47/10 14/41/10 13/38/10
f 14/42/11 9/27/11 10/30/11 13/39/11
f 15/45/12 12/36/12 11/33/12 16/48/12
o Left-hand_post
v -0.375000 0.500000 0.062500
v -0.375000 0.500000 -0.062500
v -0.375000 -0.187500 0.062500
v -0.375000 -0.187500 -0.062500
v -0.500000 0.500000 -0.062500
v -0.500000 0.500000 0.062500
v -0.500000 -0.187500 -0.062500
v -0.500000 -0.187500 0.062500
vn -0.0000 -0.0000 -1.0000
vn 1.0000 -0.0000 -0.0000
vn -0.0000 -0.0000 1.0000
vn -1.0000 -0.0000 -0.0000
vn -0.0000 1.0000 -0.0000
vn -0.0000 -1.0000 -0.0000
vt 0.437500 1.000000
vt 0.125000 1.000000
vt 0.125000 0.437500
vt 0.000000 1.000000
vt 0.562500 1.000000
vt 0.125000 0.562500
vt 0.437500 0.312500
vt 0.125000 0.312500
vt 0.125000 0.562500
vt 0.000000 0.312500
vt 0.562500 0.312500
vt 0.125000 0.437500
vt 0.125000 1.000000
vt 0.437500 1.000000
vt 0.000000 0.562500
vt 0.000000 1.000000
vt 0.562500 1.000000
vt 0.000000 0.437500
vt 0.125000 0.312500
vt 0.437500 0.312500
vt 0.000000 0.437500
vt 0.000000 0.312500
vt 0.562500 0.312500
vt 0.000000 0.562500
s 0
usemtl 0
f 20/58/13 23/67/13 21/61/13 18/52/13
f 19/55/14 20/59/14 18/53/14 17/49/14
f 24/70/15 19/56/15 17/50/15 22/64/15
f 23/68/16 24/71/16 22/65/16 21/62/16
f 22/66/17 17/51/17 18/54/17 21/63/17
f 23/69/18 20/60/18 19/57/18 24/72/18
o Lower_horizontal_bar_of_left-hand_gate_door
v -0.125000 0.062500 0.062500
v -0.125000 0.062500 -0.062500
v -0.125000 -0.125000 0.062500
v -0.125000 -0.125000 -0.062500
v -0.375000 0.062500 -0.062500
v -0.375000 0.062500 0.062500
v -0.375000 -0.125000 -0.062500
v -0.375000 -0.125000 0.062500
vn -0.0000 -0.0000 -1.0000
vn -0.0000 -0.0000 1.0000
vn -0.0000 1.0000 -0.0000
vn -0.0000 -1.0000 -0.0000
vt 0.375000 0.562500
vt 0.375000 0.437500
vt 0.125000 0.562500
vt 0.375000 0.562500
vt 0.375000 0.375000
vt 0.375000 0.562500
vt 0.125000 0.375000
vt 0.375000 0.437500
vt 0.375000 0.562500
vt 0.125000 0.562500
vt 0.125000 0.562500
vt 0.125000 0.437500
vt 0.375000 0.375000
vt 0.125000 0.437500
vt 0.125000 0.375000
vt 0.125000 0.562500
s 0
usemtl 0
f 28/79/19 31/85/19 29/81/19 26/75/19
f 32/87/20 27/77/20 25/73/20 30/83/20
f 30/84/21 25/74/21 26/76/21 29/82/21
f 31/86/22 28/80/22 27/78/22 32/88/22
o Lower_horizontal_bar_of_right-hand_gate_door
v 0.375000 0.062500 0.062500
v 0.375000 0.062500 -0.062500
v 0.375000 -0.125000 0.062500
v 0.375000 -0.125000 -0.062500
v 0.125000 0.062500 -0.062500
v 0.125000 0.062500 0.062500
v 0.125000 -0.125000 -0.062500
v 0.125000 -0.125000 0.062500
vn -0.0000 -0.0000 -1.0000
vn -0.0000 -0.0000 1.0000
vn -0.0000 1.0000 -0.0000
vn -0.0000 -1.0000 -0.0000
vt 0.875000 0.562500
vt 0.875000 0.437500
vt 0.625000 0.562500
vt 0.875000 0.562500
vt 0.875000 0.375000
vt 0.875000 0.562500
vt 0.625000 0.375000
vt 0.875000 0.437500
vt 0.875000 0.562500
vt 0.625000 0.562500
vt 0.625000 0.562500
vt 0.625000 0.437500
vt 0.875000 0.375000
vt 0.625000 0.437500
vt 0.625000 0.375000
vt 0.625000 0.562500
s 0
usemtl 0
f 36/95/23 39/101/23 37/97/23 34/91/23
f 40/103/24 35/93/24 33/89/24 38/99/24
f 38/100/25 33/90/25 34/92/25 37/98/25
f 39/102/26 36/96/26 35/94/26 40/104/26
o Right-hand_post
v 0.500000 0.500000 0.062500
v 0.500000 0.500000 -0.062500
v 0.500000 -0.187500 0.062500
v 0.500000 -0.187500 -0.062500
v 0.375000 0.500000 -0.062500
v 0.375000 0.500000 0.062500
v 0.375000 -0.187500 -0.062500
v 0.375000 -0.187500 0.062500
vn -0.0000 -0.0000 -1.0000
vn 1.0000 -0.0000 -0.0000
vn -0.0000 -0.0000 1.0000
vn -1.0000 -0.0000 -0.0000
vn -0.0000 1.0000 -0.0000
vn -0.0000 -1.0000 -0.0000
vt 0.437500 1.000000
vt 1.000000 1.000000
vt 1.000000 0.437500
vt 0.875000 1.000000
vt 0.562500 1.000000
vt 1.000000 0.562500
vt 0.437500 0.312500
vt 1.000000 0.312500
vt 1.000000 0.562500
vt 0.875000 0.312500
vt 0.562500 0.312500
vt 1.000000 0.437500
vt 1.000000 1.000000
vt 0.437500 1.000000
vt 0.875000 0.562500
vt 0.875000 1.000000
vt 0.562500 1.000000
vt 0.875000 0.437500
vt 1.000000 0.312500
vt 0.437500 0.312500
vt 0.875000 0.437500
vt 0.875000 0.312500
vt 0.562500 0.312500
vt 0.875000 0.562500
s 0
usemtl 0
f 44/114/27 47/123/27 45/117/27 42/108/27
f 43/111/28 44/115/28 42/109/28 41/105/28
f 48/126/29 43/112/29 41/106/29 46/120/29
f 47/124/30 48/127/30 46/121/30 45/118/30
f 46/122/31 41/107/31 42/110/31 45/119/31
f 47/125/32 44/116/32 43/113/32 48/128/32
o Upper_horizontal_bar_of_left-hand_gate_door
v -0.125000 0.437500 0.062500
v -0.125000 0.437500 -0.062500
v -0.125000 0.250000 0.062500
v -0.125000 0.250000 -0.062500
v -0.375000 0.437500 -0.062500
v -0.375000 0.437500 0.062500
v -0.375000 0.250000 -0.062500
v -0.375000 0.250000 0.062500
vn -0.0000 -0.0000 -1.0000
vn -0.0000 -0.0000 1.0000
vn -0.0000 1.0000 -0.0000
vn -0.0000 -1.0000 -0.0000
vt 0.375000 0.937500
vt 0.375000 0.437500
vt 0.125000 0.937500
vt 0.375000 0.562500
vt 0.375000 0.750000
vt 0.375000 0.562500
vt 0.125000 0.750000
vt 0.375000 0.437500
vt 0.375000 0.937500
vt 0.125000 0.562500
vt 0.125000 0.937500
vt 0.125000 0.437500
vt 0.375000 0.750000
vt 0.125000 0.437500
vt 0.125000 0.750000
vt 0.125000 0.562500
s 0
usemtl 0
f 52/135/33 55/141/33 53/137/33 50/131/33
f 56/143/34 51/133/34 49/129/34 54/139/34
f 54/140/35 49/130/35 50/132/35 53/138/35
f 55/142/36 52/136/36 51/134/36 56/144/36
o Upper_horizontal_bar_of_right-hand_gate_door
v 0.375000 0.437500 0.062500
v 0.375000 0.437500 -0.062500
v 0.375000 0.250000 0.062500
v 0.375000 0.250000 -0.062500
v 0.125000 0.437500 -0.062500
v 0.125000 0.437500 0.062500
v 0.125000 0.250000 -0.062500
v 0.125000 0.250000 0.062500
vn -0.0000 -0.0000 -1.0000
vn -0.0000 -0.0000 1.0000
vn -0.0000 1.0000 -0.0000
vn -0.0000 -1.0000 -0.0000
vt 0.875000 0.937500
vt 0.875000 0.437500
vt 0.625000 0.937500
vt 0.875000 0.562500
vt 0.875000 0.750000
vt 0.875000 0.562500
vt 0.625000 0.750000
vt 0.875000 0.437500
vt 0.875000 0.937500
vt 0.625000 0.562500
vt 0.625000 0.937500
vt 0.625000 0.437500
vt 0.875000 0.750000
vt 0.625000 0.437500
vt 0.625000 0.750000
vt 0.625000 0.562500
s 0
usemtl 0
f 60/151/37 63/157/37 61/153/37 58/147/37
f 64/159/38 59/149/38 57/145/38 62/155/38
f 62/156/39 57/146/39 58/148/39 61/154/39
f 63/158/40 60/152/40 59/150/40 64/160/40
