# Blender 3.4.1
# www.blender.org
mtllib knight.mtl
o cube
v 0.125000 0.187500 0.125000
v 0.125000 0.187500 -0.125000
v 0.125000 -0.250000 0.125000
v 0.125000 -0.250000 -0.125000
v -0.125000 0.187500 -0.125000
v -0.125000 0.187500 0.125000
v -0.125000 -0.250000 -0.125000
v -0.125000 -0.250000 0.125000
vn -0.0000 -0.0000 -1.0000
vn 1.0000 -0.0000 -0.0000
vn -0.0000 -0.0000 1.0000
vn -1.0000 -0.0000 -0.0000
vn -0.0000 1.0000 -0.0000
vn -0.0000 -1.0000 -0.0000
vt 0.312500 1.000000
vt 0.312500 0.562500
vt 0.187500 1.000000
vt 0.312500 0.687500
vt 0.312500 0.781250
vt 0.343750 0.843750
vt 0.187500 0.781250
vt 0.343750 0.812500
vt 0.312500 1.000000
vt 0.187500 1.000000
vt 0.187500 0.687500
vt 0.187500 1.000000
vt 0.312500 1.000000
vt 0.187500 0.562500
vt 0.312500 0.781250
vt 0.187500 0.781250
vt 0.312500 0.812500
vt 0.187500 0.781250
vt 0.312500 0.781250
vt 0.312500 0.843750
s 0
usemtl 0
f 4/7/1 7/15/1 5/9/1 2/3/1
f 3/5/2 4/7/2 2/3/2 1/1/2
f 8/18/3 3/5/3 1/1/3 6/12/3
f 7/16/4 8/19/4 6/13/4 5/10/4
f 6/14/5 1/2/5 2/4/5 5/11/5
f 7/17/6 4/8/6 3/6/6 8/20/6
o cube.001
v 0.156250 0.400314 0.040346
v 0.156250 0.208972 -0.421594
v 0.156250 0.169344 0.136017
v 0.156250 -0.021998 -0.325923
v -0.156250 0.208972 -0.421594
v -0.156250 0.400314 0.040346
v -0.156250 -0.021998 -0.325923
v -0.156250 0.169344 0.136017
vn -0.0000 -0.3827 -0.9239
vn 1.0000 -0.0000 -0.0000
vn -0.0000 0.3827 0.9239
vn -1.0000 -0.0000 -0.0000
vn -0.0000 0.9239 -0.3827
vn -0.0000 -0.9239 0.3827
vt 0.562500 1.000000
vt 0.562500 0.875000
vt 0.312500 1.000000
vt 0.562500 0.875000
vt 0.562500 0.906250
vt 0.562500 0.750000
vt 0.312500 0.875000
vt 0.312500 0.906250
vt 0.718750 0.875000
vt 0.312500 1.000000
vt 0.312500 0.968750
vt 0.531250 1.000000
vt 0.562500 1.000000
vt 0.562500 0.968750
vt 0.718750 0.750000
vt 0.312500 0.875000
vt 0.531250 0.875000
vt 0.562500 0.875000
s 0
usemtl 0
f 12/26/7 15/35/7 13/29/7 10/22/7
f 11/24/8 12/27/8 10/23/8 9/21/8
f 16/37/9 11/24/9 9/21/9 14/32/9
f 15/36/10 16/38/10 14/33/10 13/30/10
f 14/34/11 9/21/11 10/23/11 13/31/11
f 15/36/12 12/28/12 11/25/12 16/38/12
o cube.002
v 0.031250 0.437500 0.187500
v 0.031250 0.437500 -0.125000
v 0.031250 -0.000000 0.187500
v 0.031250 0.000000 -0.125000
v -0.031250 0.437500 -0.125000
v -0.031250 0.437500 0.187500
v -0.031250 0.000000 -0.125000
v -0.031250 -0.000000 0.187500
vn -0.0000 -0.0000 -1.0000
vn 1.0000 -0.0000 -0.0000
vn -0.0000 -0.0000 1.0000
vn -1.0000 -0.0000 -0.0000
vn -0.0000 1.0000 -0.0000
vn -0.0000 -1.0000 -0.0000
vt 1.000000 0.812500
vt 1.000000 0.656250
vt 0.843750 0.812500
vt 1.000000 0.812500
vt 1.000000 0.593750
vt 1.000000 0.812500
vt 0.843750 0.593750
vt 1.000000 0.656250
vt 0.875000 0.812500
vt 0.843750 0.812500
vt 0.968750 0.812500
vt 0.968750 0.812500
vt 1.000000 0.812500
vt 0.968750 0.656250
vt 0.875000 0.593750
vt 0.843750 0.593750
vt 0.968750 0.656250
vt 0.968750 0.593750
vt 1.000000 0.593750
vt 0.968750 0.812500
s 0
usemtl 0
f 20/45/13 23/53/13 21/47/13 18/41/13
f 19/43/14 20/45/14 18/41/14 17/39/14
f 24/56/15 19/43/15 17/39/15 22/50/15
f 23/54/16 24/57/16 22/51/16 21/48/16
f 22/52/17 17/40/17 18/42/17 21/49/17
f 23/55/18 20/46/18 19/44/18 24/58/18
o cube.003
v 0.187500 -0.250000 0.187500
v 0.187500 -0.250000 -0.187500
v 0.187500 -0.437500 0.187500
v 0.187500 -0.437500 -0.187500
v -0.187500 -0.250000 -0.187500
v -0.187500 -0.250000 0.187500
v -0.187500 -0.437500 -0.187500
v -0.187500 -0.437500 0.187500
vn -0.0000 -0.0000 -1.0000
vn 1.0000 -0.0000 -0.0000
vn -0.0000 -0.0000 1.0000
vn -1.0000 -0.0000 -0.0000
vn -0.0000 1.0000 -0.0000
vn -0.0000 -1.0000 -0.0000
vt 0.000000 1.000000
vt 0.187500 1.000000
vt 0.187500 0.718750
vt 0.000000 1.000000
vt 0.187500 1.000000
vt 0.187500 0.906250
vt 0.000000 0.906250
vt 0.187500 0.906250
vt 0.000000 0.906250
vt 0.187500 0.906250
vt 0.187500 0.718750
vt 0.187500 1.000000
vt 0.000000 1.000000
vt 0.000000 0.906250
vt 0.000000 1.000000
vt 0.187500 1.000000
vt 0.000000 0.718750
vt 0.187500 0.906250
vt 0.000000 0.906250
vt 0.000000 0.718750
vt 0.187500 0.906250
vt 0.000000 0.906250
s 0
usemtl 0
f 28/67/19 31/76/19 29/70/19 26/62/19
f 27/65/20 28/68/20 26/63/20 25/59/20
f 32/80/21 27/66/21 25/60/21 30/73/21
f 31/77/22 32/79/22 30/74/22 29/71/22
f 30/75/23 25/61/23 26/64/23 29/72/23
f 31/78/24 28/69/24 27/66/24 32/80/24
o cube.004
v 0.250000 -0.437500 0.250000
v 0.250000 -0.437500 -0.250000
v 0.250000 -0.500000 0.250000
v 0.250000 -0.500000 -0.250000
v -0.250000 -0.437500 -0.250000
v -0.250000 -0.437500 0.250000
v -0.250000 -0.500000 -0.250000
v -0.250000 -0.500000 0.250000
vn -0.0000 -0.0000 -1.0000
vn 1.0000 -0.0000 -0.0000
vn -0.0000 -0.0000 1.0000
vn -1.0000 -0.0000 -0.0000
vn -0.0000 1.0000 -0.0000
vn -0.0000 -1.0000 -0.0000
vt 0.000000 0.031250
vt 0.250000 0.031250
vt 0.000000 0.031250
vt 0.250000 0.031250
vt 0.250000 0.281250
vt 0.000000 0.000000
vt 0.250000 0.000000
vt 0.000000 0.062500
vt 0.000000 0.000000
vt 0.250000 0.000000
vt 0.000000 0.031250
vt 0.250000 0.031250
vt 0.000000 0.031250
vt 0.000000 0.281250
vt 0.250000 0.031250
vt 0.000000 0.031250
vt 0.250000 0.000000
vt 0.000000 0.000000
vt 0.031250 0.031250
vt 0.000000 0.000000
vt 0.250000 0.000000
vt 0.031250 0.062500
s 0
usemtl 0
f 36/89/25 39/97/25 37/92/25 34/83/25
f 35/86/26 36/90/26 34/84/26 33/81/26
f 40/100/27 35/87/27 33/82/27 38/96/27
f 39/98/28 40/101/28 38/95/28 37/93/28
f 38/96/29 33/82/29 34/85/29 37/94/29
f 39/99/30 36/91/30 35/88/30 40/102/30
o cube.005
v 0.156250 -0.125000 0.156250
v 0.156250 -0.125000 -0.156250
v 0.156250 -0.187500 0.156250
v 0.156250 -0.187500 -0.156250
v -0.156250 -0.125000 -0.156250
v -0.156250 -0.125000 0.156250
v -0.156250 -0.187500 -0.156250
v -0.156250 -0.187500 0.156250
vn -0.0000 -0.0000 -1.0000
vn 1.0000 -0.0000 -0.0000
vn -0.0000 -0.0000 1.0000
vn -1.0000 -0.0000 -0.0000
vn -0.0000 1.0000 -0.0000
vn -0.0000 -1.0000 -0.0000
vt 0.843750 1.000000
vt 1.000000 1.000000
vt 1.000000 0.812500
vt 0.843750 1.000000
vt 1.000000 1.000000
vt 1.000000 0.968750
vt 0.843750 0.968750
vt 1.000000 0.968750
vt 0.843750 0.968750
vt 1.000000 0.968750
vt 1.000000 0.812500
vt 1.000000 1.000000
vt 0.843750 1.000000
vt 0.843750 0.968750
vt 0.843750 1.000000
vt 1.000000 1.000000
vt 0.843750 0.812500
vt 1.000000 0.968750
vt 0.843750 0.968750
vt 0.843750 0.812500
vt 1.000000 0.968750
vt 0.843750 0.968750
s 0
usemtl 0
f 44/111/31 47/120/31 45/114/31 42/106/31
f 43/109/32 44/112/32 42/107/32 41/103/32
f 48/124/33 43/110/33 41/104/33 46/117/33
f 47/121/34 48/123/34 46/118/34 45/115/34
f 46/119/35 41/105/35 42/108/35 45/116/35
f 47/122/36 44/113/36 43/110/36 48/124/36
