# Blender 3.4.1
# www.blender.org
mtllib pawn.mtl
o cube
v 0.125000 -0.000000 0.125000
v 0.125000 0.000000 -0.125000
v 0.125000 -0.250000 0.125000
v 0.125000 -0.250000 -0.125000
v -0.125000 0.000000 -0.125000
v -0.125000 -0.000000 0.125000
v -0.125000 -0.250000 -0.125000
v -0.125000 -0.250000 0.125000
vn -0.0000 -0.0000 -1.0000
vn 1.0000 -0.0000 -0.0000
vn -0.0000 -0.0000 1.0000
vn -1.0000 -0.0000 -0.0000
vn -0.0000 1.0000 -0.0000
vn -0.0000 -1.0000 -0.0000
vt 0.187500 1.000000
vt 0.312500 1.000000
vt 0.312500 0.875000
vt 0.187500 1.000000
vt 0.312500 1.000000
vt 0.187500 0.875000
vt 0.312500 0.875000
vt 0.312500 1.000000
vt 0.187500 0.875000
vt 0.312500 0.875000
vt 0.312500 1.000000
vt 0.187500 1.000000
vt 0.187500 1.000000
vt 0.312500 1.000000
vt 0.187500 0.875000
vt 0.312500 0.875000
vt 0.187500 0.875000
vt 0.187500 0.875000
vt 0.312500 0.875000
vt 0.187500 1.000000
s 0
usemtl 0
f 4/9/1 7/16/1 5/11/1 2/4/1
f 3/6/2 4/10/2 2/5/2 1/1/2
f 8/18/3 3/7/3 1/2/3 6/13/3
f 7/17/4 8/19/4 6/14/4 5/12/4
f 6/15/5 1/3/5 2/5/5 5/12/5
f 7/17/6 4/10/6 3/8/6 8/20/6
o cube.001
v 0.187500 0.375000 0.187500
v 0.187500 0.375000 -0.187500
v 0.187500 -0.000000 0.187500
v 0.187500 0.000000 -0.187500
v -0.187500 0.375000 -0.187500
v -0.187500 0.375000 0.187500
v -0.187500 0.000000 -0.187500
v -0.187500 -0.000000 0.187500
vn -0.0000 -0.0000 -1.0000
vn 1.0000 -0.0000 -0.0000
vn -0.0000 -0.0000 1.0000
vn -1.0000 -0.0000 -0.0000
vn -0.0000 1.0000 -0.0000
vn -0.0000 -1.0000 -0.0000
vt 0.312500 1.000000
vt 0.500000 1.000000
vt 0.500000 0.625000
vt 0.312500 1.000000
vt 0.500000 1.000000
vt 0.500000 0.812500
vt 0.312500 0.812500
vt 0.500000 0.812500
vt 0.343750 0.843750
vt 0.312500 0.812500
vt 0.500000 0.812500
vt 0.343750 0.812500
vt 0.500000 1.000000
vt 0.312500 1.000000
vt 0.312500 0.812500
vt 0.312500 1.000000
vt 0.500000 1.000000
vt 0.312500 0.625000
vt 0.500000 0.812500
vt 0.312500 0.812500
vt 0.312500 0.812500
vt 0.500000 0.812500
vt 0.312500 0.843750
s 0
usemtl 0
f 12/30/7 15/39/7 13/33/7 10/24/7
f 11/27/8 12/31/8 10/25/8 9/21/8
f 16/41/9 11/28/9 9/22/9 14/36/9
f 15/40/10 16/42/10 14/37/10 13/34/10
f 14/38/11 9/23/11 10/26/11 13/35/11
f 15/40/12 12/32/12 11/29/12 16/43/12
o cube.002
v 0.156250 -0.125000 0.156250
v 0.156250 -0.125000 -0.156250
v 0.156250 -0.187500 0.156250
v 0.156250 -0.187500 -0.156250
v -0.156250 -0.125000 -0.156250
v -0.156250 -0.125000 0.156250
v -0.156250 -0.187500 -0.156250
v -0.156250 -0.187500 0.156250
vn -0.0000 -0.0000 -1.0000
vn 1.0000 -0.0000 -0.0000
vn -0.0000 -0.0000 1.0000
vn -1.0000 -0.0000 -0.0000
vn -0.0000 1.0000 -0.0000
vn -0.0000 -1.0000 -0.0000
vt 0.500000 1.000000
vt 0.656250 1.000000
vt 0.656250 0.812500
vt 0.500000 1.000000
vt 0.656250 1.000000
vt 0.656250 0.968750
vt 0.500000 0.968750
vt 0.656250 0.968750
vt 0.500000 0.968750
vt 0.656250 0.968750
vt 0.656250 0.812500
vt 0.656250 1.000000
vt 0.500000 1.000000
vt 0.500000 0.968750
vt 0.500000 1.000000
vt 0.656250 1.000000
vt 0.500000 0.812500
vt 0.656250 0.968750
vt 0.500000 0.968750
vt 0.500000 0.812500
vt 0.656250 0.968750
vt 0.500000 0.968750
s 0
usemtl 0
f 20/52/13 23/61/13 21/55/13 18/47/13
f 19/50/14 20/53/14 18/48/14 17/44/14
f 24/65/15 19/51/15 17/45/15 22/58/15
f 23/62/16 24/64/16 22/59/16 21/56/16
f 22/60/17 17/46/17 18/49/17 21/57/17
f 23/63/18 20/54/18 19/51/18 24/65/18
o cube.003
v 0.187500 -0.250000 0.187500
v 0.187500 -0.250000 -0.187500
v 0.187500 -0.437500 0.187500
v 0.187500 -0.437500 -0.187500
v -0.187500 -0.250000 -0.187500
v -0.187500 -0.250000 0.187500
v -0.187500 -0.437500 -0.187500
v -0.187500 -0.437500 0.187500
vn -0.0000 -0.0000 -1.0000
vn 1.0000 -0.0000 -0.0000
vn -0.0000 -0.0000 1.0000
vn -1.0000 -0.0000 -0.0000
vn -0.0000 1.0000 -0.0000
vn -0.0000 -1.0000 -0.0000
vt 0.000000 1.000000
vt 0.187500 1.000000
vt 0.187500 0.718750
vt 0.000000 1.000000
vt 0.187500 1.000000
vt 0.187500 0.906250
vt 0.000000 0.906250
vt 0.187500 0.906250
vt 0.000000 0.906250
vt 0.187500 0.906250
vt 0.187500 0.718750
vt 0.187500 1.000000
vt 0.000000 1.000000
vt 0.000000 0.906250
vt 0.000000 1.000000
vt 0.187500 1.000000
vt 0.000000 0.718750
vt 0.187500 0.906250
vt 0.000000 0.906250
vt 0.000000 0.718750
vt 0.187500 0.906250
vt 0.000000 0.906250
s 0
usemtl 0
f 28/74/19 31/83/19 29/77/19 26/69/19
f 27/72/20 28/75/20 26/70/20 25/66/20
f 32/87/21 27/73/21 25/67/21 30/80/21
f 31/84/22 32/86/22 30/81/22 29/78/22
f 30/82/23 25/68/23 26/71/23 29/79/23
f 31/85/24 28/76/24 27/73/24 32/87/24
o cube.004
v 0.250000 -0.437500 0.250000
v 0.250000 -0.437500 -0.250000
v 0.250000 -0.500000 0.250000
v 0.250000 -0.500000 -0.250000
v -0.250000 -0.437500 -0.250000
v -0.250000 -0.437500 0.250000
v -0.250000 -0.500000 -0.250000
v -0.250000 -0.500000 0.250000
vn -0.0000 -0.0000 -1.0000
vn 1.0000 -0.0000 -0.0000
vn -0.0000 -0.0000 1.0000
vn -1.0000 -0.0000 -0.0000
vn -0.0000 1.0000 -0.0000
vn -0.0000 -1.0000 -0.0000
vt 0.000000 0.031250
vt 0.250000 0.031250
vt 0.000000 0.031250
vt 0.250000 0.031250
vt 0.250000 0.281250
vt 0.000000 0.000000
vt 0.250000 0.000000
vt 0.000000 0.062500
vt 0.000000 0.000000
vt 0.250000 0.000000
vt 0.000000 0.031250
vt 0.250000 0.031250
vt 0.000000 0.031250
vt 0.000000 0.281250
vt 0.250000 0.031250
vt 0.000000 0.031250
vt 0.250000 0.000000
vt 0.000000 0.000000
vt 0.031250 0.031250
vt 0.000000 0.000000
vt 0.250000 0.000000
vt 0.031250 0.062500
s 0
usemtl 0
f 36/96/25 39/104/25 37/99/25 34/90/25
f 35/93/26 36/97/26 34/91/26 33/88/26
f 40/107/27 35/94/27 33/89/27 38/103/27
f 39/105/28 40/108/28 38/102/28 37/100/28
f 38/103/29 33/89/29 34/92/29 37/101/29
f 39/106/30 36/98/30 35/95/30 40/109/30
