# Blender 3.4.1
# www.blender.org
mtllib tablecloth.mtl
o cube
v 0.500000 0.500000 0.500000
v 0.500000 0.500000 -0.500000
v 0.500000 0.375000 0.500000
v 0.500000 0.375000 -0.500000
v -0.500000 0.500000 -0.500000
v -0.500000 0.500000 0.500000
v -0.500000 0.375000 -0.500000
v -0.500000 0.375000 0.500000
vn -0.0000 -0.0000 -1.0000
vn 1.0000 -0.0000 -0.0000
vn -0.0000 -0.0000 1.0000
vn -1.0000 -0.0000 -0.0000
vn -0.0000 1.0000 -0.0000
vn -0.0000 -1.0000 -0.0000
vt 0.000000 1.000000
vt 1.000000 1.000000
vt 1.000000 0.000000
vt 0.000000 1.000000
vt 1.000000 1.000000
vt 0.000000 1.000000
vt 1.000000 1.000000
vt 0.000000 1.000000
vt 1.000000 1.000000
vt 1.000000 0.000000
vt 1.000000 1.000000
vt 0.000000 1.000000
vt 0.000000 1.000000
vt 1.000000 1.000000
vt 0.000000 0.000000
vt 1.000000 1.000000
vt 0.000000 1.000000
vt 0.000000 0.000000
vt 1.000000 1.000000
vt 0.000000 1.000000
s 0
usemtl 0
f 4/8/1 7/16/1 5/11/1 2/4/1
f 3/6/2 4/9/2 2/5/2 1/1/2
f 8/20/3 3/7/3 1/2/3 6/13/3
f 7/17/4 8/19/4 6/14/4 5/12/4
f 6/15/5 1/3/5 2/5/5 5/12/5
f 7/18/6 4/10/6 3/7/6 8/20/6
o cube.001
v -0.312500 0.375000 -0.312500
v -0.312500 0.375000 -0.437500
v -0.312500 -0.500000 -0.312500
v -0.312500 -0.500000 -0.437500
v -0.437500 0.375000 -0.437500
v -0.437500 0.375000 -0.312500
v -0.437500 -0.500000 -0.437500
v -0.437500 -0.500000 -0.312500
vn -0.0000 -0.0000 -1.0000
vn 1.0000 -0.0000 -0.0000
vn -0.0000 -0.0000 1.0000
vn -1.0000 -0.0000 -0.0000
vn -0.0000 -1.0000 -0.0000
vt 0.000000 1.000000
vt 0.125000 1.000000
vt 0.000000 1.000000
vt 0.125000 1.000000
vt 0.000000 0.125000
vt 0.125000 0.125000
vt 0.125000 1.000000
vt 0.000000 0.125000
vt 0.125000 0.125000
vt 0.125000 0.875000
vt 0.125000 1.000000
vt 0.000000 1.000000
vt 0.000000 1.000000
vt 0.125000 1.000000
vt 0.125000 0.125000
vt 0.000000 0.125000
vt 0.000000 0.875000
vt 0.000000 0.125000
vt 0.125000 0.125000
vt 0.000000 1.000000
s 0
usemtl 0
f 12/28/7 15/35/7 13/31/7 10/23/7
f 11/25/8 12/29/8 10/24/8 9/21/8
f 16/38/9 11/26/9 9/22/9 14/33/9
f 15/36/10 16/39/10 14/34/10 13/32/10
f 15/37/11 12/30/11 11/27/11 16/40/11
o cube.002
v 0.437500 0.375000 -0.312500
v 0.437500 0.375000 -0.437500
v 0.437500 -0.500000 -0.312500
v 0.437500 -0.500000 -0.437500
v 0.312500 0.375000 -0.437500
v 0.312500 0.375000 -0.312500
v 0.312500 -0.500000 -0.437500
v 0.312500 -0.500000 -0.312500
vn -0.0000 -0.0000 -1.0000
vn 1.0000 -0.0000 -0.0000
vn -0.0000 -0.0000 1.0000
vn -1.0000 -0.0000 -0.0000
vn -0.0000 -1.0000 -0.0000
vt 0.125000 1.000000
vt 0.250000 1.000000
vt 0.125000 1.000000
vt 0.250000 1.000000
vt 0.125000 0.125000
vt 0.250000 0.125000
vt 0.250000 1.000000
vt 0.125000 0.125000
vt 0.250000 0.125000
vt 0.250000 0.875000
vt 0.250000 1.000000
vt 0.125000 1.000000
vt 0.125000 1.000000
vt 0.250000 1.000000
vt 0.250000 0.125000
vt 0.125000 0.125000
vt 0.125000 0.875000
vt 0.125000 0.125000
vt 0.250000 0.125000
vt 0.125000 1.000000
s 0
usemtl 0
f 20/48/12 23/55/12 21/51/12 18/43/12
f 19/45/13 20/49/13 18/44/13 17/41/13
f 24/58/14 19/46/14 17/42/14 22/53/14
f 23/56/15 24/59/15 22/54/15 21/52/15
f 23/57/16 20/50/16 19/47/16 24/60/16
o cube.003
v -0.312500 0.375000 0.437500
v -0.312500 0.375000 0.312500
v -0.312500 -0.500000 0.437500
v -0.312500 -0.500000 0.312500
v -0.437500 0.375000 0.312500
v -0.437500 0.375000 0.437500
v -0.437500 -0.500000 0.312500
v -0.437500 -0.500000 0.437500
vn -0.0000 -0.0000 -1.0000
vn 1.0000 -0.0000 -0.0000
vn -0.0000 -0.0000 1.0000
vn -1.0000 -0.0000 -0.0000
vn -0.0000 -1.0000 -0.0000
vt 0.000000 1.000000
vt 0.125000 1.000000
vt 0.000000 1.000000
vt 0.125000 1.000000
vt 0.000000 0.125000
vt 0.125000 0.125000
vt 0.125000 1.000000
vt 0.000000 0.125000
vt 0.125000 0.125000
vt 0.125000 0.875000
vt 0.125000 1.000000
vt 0.000000 1.000000
vt 0.000000 1.000000
vt 0.125000 1.000000
vt 0.125000 0.125000
vt 0.000000 0.125000
vt 0.000000 0.875000
vt 0.000000 0.125000
vt 0.125000 0.125000
vt 0.000000 1.000000
s 0
usemtl 0
f 28/68/17 31/75/17 29/71/17 26/63/17
f 27/65/18 28/69/18 26/64/18 25/61/18
f 32/78/19 27/66/19 25/62/19 30/73/19
f 31/76/20 32/79/20 30/74/20 29/72/20
f 31/77/21 28/70/21 27/67/21 32/80/21
o cube.004
v 0.437500 0.375000 0.437500
v 0.437500 0.375000 0.312500
v 0.437500 -0.500000 0.437500
v 0.437500 -0.500000 0.312500
v 0.312500 0.375000 0.312500
v 0.312500 0.375000 0.437500
v 0.312500 -0.500000 0.312500
v 0.312500 -0.500000 0.437500
vn -0.0000 -0.0000 -1.0000
vn 1.0000 -0.0000 -0.0000
vn -0.0000 -0.0000 1.0000
vn -1.0000 -0.0000 -0.0000
vn -0.0000 -1.0000 -0.0000
vt 0.125000 1.000000
vt 0.250000 1.000000
vt 0.125000 1.000000
vt 0.250000 1.000000
vt 0.125000 0.125000
vt 0.250000 0.125000
vt 0.250000 1.000000
vt 0.125000 0.125000
vt 0.250000 0.125000
vt 0.250000 0.875000
vt 0.250000 1.000000
vt 0.125000 1.000000
vt 0.125000 1.000000
vt 0.250000 1.000000
vt 0.250000 0.125000
vt 0.125000 0.125000
vt 0.125000 0.875000
vt 0.125000 0.125000
vt 0.250000 0.125000
vt 0.125000 1.000000
s 0
usemtl 0
f 36/88/22 39/95/22 37/91/22 34/83/22
f 35/85/23 36/89/23 34/84/23 33/81/23
f 40/98/24 35/86/24 33/82/24 38/93/24
f 39/96/25 40/99/25 38/94/25 37/92/25
f 39/97/26 36/90/26 35/87/26 40/100/26
o cube.005
v 0.343750 0.506250 0.500000
v 0.343750 0.506250 -0.500000
v 0.343750 0.500000 0.500000
v 0.343750 0.500000 -0.500000
v -0.343750 0.506250 -0.500000
v -0.343750 0.506250 0.500000
v -0.343750 0.500000 -0.500000
v -0.343750 0.500000 0.500000
vn 1.0000 -0.0000 -0.0000
vn -1.0000 -0.0000 -0.0000
vn -0.0000 1.0000 -0.0000
vt 0.000000 1.000000
vt 0.687500 0.000000
vt 1.000000 1.000000
vt 0.687500 1.000000
vt 0.000000 0.993750
vt 1.000000 0.993750
vt 0.000000 1.000000
vt 1.000000 1.000000
vt 0.000000 0.000000
vt 0.000000 0.993750
vt 1.000000 0.993750
s 0
usemtl 1
f 43/105/27 44/106/27 42/103/27 41/101/27
f 47/110/28 48/111/28 46/108/28 45/107/28
f 46/109/29 41/102/29 42/104/29 45/107/29
o cube.006
v 0.343750 0.503260 0.507218
v 0.343750 0.506250 0.500000
v 0.343750 0.497486 0.504826
v 0.343750 0.500476 0.497609
v -0.343750 0.506250 0.500000
v -0.343750 0.503260 0.507218
v -0.343750 0.500476 0.497609
v -0.343750 0.497486 0.504826
vn 1.0000 -0.0000 -0.0000
vn -1.0000 -0.0000 -0.0000
vn -0.0000 0.9239 0.3827
vn -0.0000 -0.9239 -0.3827
vt 0.007812 1.000000
vt 0.687500 1.000000
vt 0.000000 1.000000
vt 0.687500 0.992188
vt 0.007812 0.993750
vt 0.687500 0.992188
vt 0.000000 0.993750
vt 0.687500 1.000000
vt 0.007812 1.000000
vt 0.000000 0.992188
vt 0.000000 1.000000
vt 0.007812 0.993750
vt 0.000000 1.000000
vt 0.000000 0.993750
vt 0.000000 0.992188
s 0
usemtl 1
f 51/116/30 52/118/30 50/114/30 49/112/30
f 55/123/31 56/125/31 54/122/31 53/120/31
f 54/122/32 49/113/32 50/115/32 53/121/32
f 55/124/33 52/119/33 51/117/33 56/126/33
o cube.007
v 0.343750 0.506250 -0.500000
v 0.343750 0.503261 -0.507218
v 0.343750 0.500476 -0.497608
v 0.343750 0.497486 -0.504826
v -0.343750 0.503261 -0.507218
v -0.343750 0.506250 -0.500000
v -0.343750 0.497486 -0.504826
v -0.343750 0.500476 -0.497608
vn 1.0000 -0.0000 -0.0000
vn -1.0000 -0.0000 -0.0000
vn -0.0000 0.9239 -0.3827
vn -0.0000 -0.9239 0.3827
vt 0.000000 1.000000
vt 0.687500 0.992188
vt 0.007812 1.000000
vt 0.687500 1.000000
vt 0.000000 0.993750
vt 0.687500 1.000000
vt 0.007812 0.993750
vt 0.687500 0.992188
vt 0.000000 1.000000
vt 0.007812 1.000000
vt 0.000000 0.992188
vt 0.000000 0.993750
vt 0.000000 0.992188
vt 0.007812 0.993750
vt 0.000000 1.000000
s 0
usemtl 1
f 59/131/34 60/133/34 58/129/34 57/127/34
f 63/138/35 64/140/35 62/136/35 61/135/35
f 62/137/36 57/128/36 58/130/36 61/135/36
f 63/139/37 60/134/37 59/132/37 64/141/37
o cube.008
v 0.343750 0.497736 0.512742
v 0.343750 0.503260 0.507218
v 0.343750 0.493316 0.508323
v 0.343750 0.498841 0.502798
v -0.343750 0.503260 0.507218
v -0.343750 0.497736 0.512742
v -0.343750 0.498841 0.502798
v -0.343750 0.493316 0.508323
vn 1.0000 -0.0000 -0.0000
vn -1.0000 -0.0000 -0.0000
vn -0.0000 0.7071 0.7071
vn -0.0000 -0.7071 -0.7071
vt 0.007812 1.000000
vt 0.687500 1.000000
vt 0.000000 1.000000
vt 0.687500 0.992188
vt 0.007812 0.993750
vt 0.687500 0.992188
vt 0.000000 0.993750
vt 0.687500 1.000000
vt 0.007812 1.000000
vt 0.000000 0.992188
vt 0.000000 1.000000
vt 0.007812 0.993750
vt 0.000000 1.000000
vt 0.000000 0.993750
vt 0.000000 0.992188
s 0
usemtl 1
f 67/146/38 68/148/38 66/144/38 65/142/38
f 71/153/39 72/155/39 70/152/39 69/150/39
f 70/152/40 65/143/40 66/145/40 69/151/40
f 71/154/41 68/149/41 67/147/41 72/156/41
o cube.009
v 0.343750 0.503260 -0.507218
v 0.343750 0.497736 -0.512742
v 0.343750 0.498841 -0.502798
v 0.343750 0.493316 -0.508322
v -0.343750 0.497736 -0.512742
v -0.343750 0.503260 -0.507218
v -0.343750 0.493316 -0.508322
v -0.343750 0.498841 -0.502798
vn 1.0000 -0.0000 -0.0000
vn -1.0000 -0.0000 -0.0000
vn -0.0000 0.7071 -0.7071
vn -0.0000 -0.7071 0.7071
vt 0.000000 1.000000
vt 0.687500 0.992188
vt 0.007812 1.000000
vt 0.687500 1.000000
vt 0.000000 0.993750
vt 0.687500 1.000000
vt 0.007812 0.993750
vt 0.687500 0.992188
vt 0.000000 1.000000
vt 0.007812 1.000000
vt 0.000000 0.992188
vt 0.000000 0.993750
vt 0.000000 0.992188
vt 0.007812 0.993750
vt 0.000000 1.000000
s 0
usemtl 1
f 75/161/42 76/163/42 74/159/42 73/157/42
f 79/168/43 80/170/43 78/166/43 77/165/43
f 78/167/44 73/158/44 74/160/44 77/165/44
f 79/169/45 76/164/45 75/162/45 80/171/45
o cube.010
v 0.343750 0.497736 0.512742
v 0.343750 0.495344 0.506968
v 0.343750 0.490518 0.515732
v 0.343750 0.488126 0.509957
v -0.343750 0.495344 0.506968
v -0.343750 0.497736 0.512742
v -0.343750 0.488126 0.509957
v -0.343750 0.490518 0.515732
vn -0.0000 -0.3827 -0.9239
vn 1.0000 -0.0000 -0.0000
vn -0.0000 0.3827 0.9239
vn -1.0000 -0.0000 -0.0000
vt 0.000000 1.000000
vt 0.687500 0.992188
vt 0.687500 1.000000
vt 0.000000 0.993750
vt 0.007812 1.000000
vt 0.687500 1.000000
vt 0.687500 0.992188
vt 0.007812 0.993750
vt 0.000000 1.000000
vt 0.007812 0.993750
vt 0.000000 0.992188
vt 0.007812 1.000000
vt 0.000000 0.992188
vt 0.000000 0.993750
vt 0.000000 1.000000
s 0
usemtl 1
f 84/178/46 87/184/46 85/180/46 82/174/46
f 83/176/47 84/179/47 82/175/47 81/172/47
f 88/186/48 83/177/48 81/173/48 86/182/48
f 87/185/49 88/186/49 86/183/49 85/181/49
o cube.011
v 0.343750 0.495344 -0.506968
v 0.343750 0.497736 -0.512742
v 0.343750 0.488127 -0.509957
v 0.343750 0.490518 -0.515732
v -0.343750 0.497736 -0.512742
v -0.343750 0.495344 -0.506968
v -0.343750 0.490518 -0.515732
v -0.343750 0.488127 -0.509957
vn -0.0000 0.3827 -0.9239
vn 1.0000 -0.0000 -0.0000
vn -0.0000 -0.3827 0.9239
vn -1.0000 -0.0000 -0.0000
vt 0.000000 0.993750
vt 0.687500 1.000000
vt 0.687500 0.992188
vt 0.000000 1.000000
vt 0.007812 0.993750
vt 0.687500 0.992188
vt 0.687500 1.000000
vt 0.007812 1.000000
vt 0.000000 0.992188
vt 0.007812 1.000000
vt 0.000000 1.000000
vt 0.007812 0.993750
vt 0.000000 1.000000
vt 0.000000 0.992188
vt 0.000000 0.993750
s 0
usemtl 1
f 92/193/50 95/199/50 93/195/50 90/189/50
f 91/191/51 92/194/51 90/190/51 89/187/51
f 96/200/52 91/192/52 89/188/52 94/197/52
f 95/199/53 96/201/53 94/198/53 93/196/53
o cube.012
v 0.343750 0.422597 0.515256
v 0.343750 0.420205 0.509482
v 0.343750 0.415379 0.518246
v 0.343750 0.412988 0.512472
v -0.343750 0.420205 0.509482
v -0.343750 0.422597 0.515256
v -0.343750 0.412988 0.512472
v -0.343750 0.415379 0.518246
vn -0.0000 -0.3827 -0.9239
vn 1.0000 -0.0000 -0.0000
vn -0.0000 0.3827 0.9239
vn -1.0000 -0.0000 -0.0000
vn -0.0000 -0.9239 0.3827
vt 0.000000 1.000000
vt 0.687500 0.992188
vt 0.687500 1.000000
vt 0.000000 0.993750
vt 0.007812 1.000000
vt 0.687500 1.000000
vt 0.000000 1.000000
vt 0.687500 0.992188
vt 0.007812 0.993750
vt 0.000000 0.993750
vt 0.000000 1.000000
vt 0.007812 0.993750
vt 0.000000 0.992188
vt 0.007812 1.000000
vt 0.000000 0.992188
vt 0.000000 0.993750
vt 0.687500 0.993750
vt 0.000000 1.000000
vt 0.687500 1.000000
s 0
usemtl 1
f 100/209/54 103/216/54 101/212/54 98/204/54
f 99/206/55 100/210/55 98/205/55 97/202/55
f 104/219/56 99/207/56 97/203/56 102/214/56
f 103/217/57 104/219/57 102/215/57 101/213/57
f 103/218/58 100/211/58 99/208/58 104/220/58
o cube.013
v 0.343750 0.420206 -0.509482
v 0.343750 0.422597 -0.515256
v 0.343750 0.412988 -0.512472
v 0.343750 0.415380 -0.518246
v -0.343750 0.422597 -0.515256
v -0.343750 0.420206 -0.509482
v -0.343750 0.415380 -0.518246
v -0.343750 0.412988 -0.512472
vn -0.0000 0.3827 -0.9239
vn 1.0000 -0.0000 -0.0000
vn -0.0000 -0.3827 0.9239
vn -1.0000 -0.0000 -0.0000
vn -0.0000 -0.9239 -0.3827
vt 0.000000 0.993750
vt 0.687500 1.000000
vt 0.687500 0.992188
vt 0.000000 1.000000
vt 0.007812 0.993750
vt 0.687500 0.992188
vt 0.000000 0.993750
vt 0.687500 1.000000
vt 0.007812 1.000000
vt 0.000000 1.000000
vt 0.000000 0.992188
vt 0.007812 1.000000
vt 0.000000 1.000000
vt 0.007812 0.993750
vt 0.000000 1.000000
vt 0.687500 1.000000
vt 0.000000 0.992188
vt 0.000000 0.993750
vt 0.687500 0.993750
s 0
usemtl 1
f 108/228/59 111/235/59 109/231/59 106/223/59
f 107/225/60 108/229/60 106/224/60 105/221/60
f 112/237/61 107/226/61 105/222/61 110/233/61
f 111/235/62 112/238/62 110/234/62 109/232/62
f 111/236/63 108/230/63 107/227/63 112/239/63
o cube.014
v 0.343750 0.490518 0.515732
v 0.343750 0.490518 0.509482
v 0.343750 0.420206 0.515732
v 0.343750 0.420206 0.509482
v -0.343750 0.490518 0.509482
v -0.343750 0.490518 0.515732
v -0.343750 0.420206 0.509482
v -0.343750 0.420206 0.515732
vn -0.0000 -0.0000 -1.0000
vn 1.0000 -0.0000 -0.0000
vn -0.0000 -0.0000 1.0000
vn -1.0000 -0.0000 -0.0000
vt 0.000000 1.000000
vt 0.687500 0.929688
vt 0.687500 1.000000
vt 0.000000 0.993750
vt 0.070312 1.000000
vt 0.687500 1.000000
vt 0.687500 0.929688
vt 0.070312 0.993750
vt 0.000000 1.000000
vt 0.070312 0.993750
vt 0.000000 0.929688
vt 0.070312 1.000000
vt 0.000000 0.929688
vt 0.000000 0.993750
vt 0.000000 1.000000
s 0
usemtl 1
f 116/246/64 119/252/64 117/248/64 114/242/64
f 115/244/65 116/247/65 114/243/65 113/240/65
f 120/254/66 115/245/66 113/241/66 118/250/66
f 119/253/67 120/254/67 118/251/67 117/249/67
o cube.015
v 0.343750 0.490518 -0.509482
v 0.343750 0.490518 -0.515732
v 0.343750 0.420206 -0.509482
v 0.343750 0.420206 -0.515732
v -0.343750 0.490518 -0.515732
v -0.343750 0.490518 -0.509482
v -0.343750 0.420206 -0.515732
v -0.343750 0.420206 -0.509482
vn -0.0000 -0.0000 -1.0000
vn 1.0000 -0.0000 -0.0000
vn -0.0000 -0.0000 1.0000
vn -1.0000 -0.0000 -0.0000
vt 0.000000 0.993750
vt 0.687500 1.000000
vt 0.687500 0.929688
vt 0.000000 1.000000
vt 0.070312 0.993750
vt 0.687500 0.929688
vt 0.687500 1.000000
vt 0.070312 1.000000
vt 0.000000 0.929688
vt 0.070312 1.000000
vt 0.000000 1.000000
vt 0.070312 0.993750
vt 0.000000 1.000000
vt 0.000000 0.929688
vt 0.000000 0.993750
s 0
usemtl 1
f 124/261/68 127/267/68 125/263/68 122/257/68
f 123/259/69 124/262/69 122/258/69 121/255/69
f 128/268/70 123/260/70 121/256/70 126/265/70
f 127/267/71 128/269/71 126/266/71 125/264/71
